<svg width="142" height="191" viewBox="0 0 142 191" fill="none" xmlns="http://www.w3.org/2000/svg">
<path d="M141.47 120.249C141.47 159.315 109.801 190.984 70.7349 190.984C31.6691 190.984 -7.62939e-06 159.315 -7.62939e-06 120.249C-7.62939e-06 81.1836 66.4908 42.441 70.7349 0C91.9554 33.9528 141.47 81.1836 141.47 120.249Z" fill="#FF0000"/>
<path d="M123.079 120.957C123.079 150.256 99.3269 174.008 70.0275 174.008C40.7281 174.008 16.9763 150.256 16.9763 120.957C16.9763 91.6574 64.3687 62.2467 74.2716 24.0499C90.5407 45.9777 123.079 91.6574 123.079 120.957Z" fill="#D6561F"/>
<path d="M106.102 120.249C106.102 139.782 90.2678 155.617 70.7349 155.617C51.202 155.617 35.3674 139.782 35.3674 120.249C35.3674 100.717 64.3687 81.3453 77.8084 54.466C92.6627 77.8085 106.102 100.717 106.102 120.249Z" fill="#D6B21F"/>
</svg>
